<svg width="331" height="331" viewBox="0 0 331 331" fill="none" xmlns="http://www.w3.org/2000/svg">
<circle cx="165.5" cy="165.5" r="165.5" fill="#FFF800"/>
<path d="M276.788 179.572C279.494 180.248 279.719 181.939 279.607 185.435C279.381 192.087 278.705 196.71 277.803 199.98C276.788 203.588 274.871 205.054 268.219 205.054H221.652C216.804 205.054 215 204.152 215 201.446C215 194.68 222.78 199.642 222.78 184.082V147.099C222.78 131.54 215 136.501 215 129.735C215 127.029 216.804 126.127 221.652 126.127H266.077C272.729 126.127 274.758 126.804 275.999 130.299C277.126 133.344 278.141 137.177 279.043 141.8C279.719 145.182 279.381 147.325 277.239 148.001C274.984 148.791 273.405 147.889 271.489 144.957C266.753 137.854 262.017 134.246 254.914 134.246H250.066C242.962 134.246 241.384 135.824 241.384 139.432V150.031C241.384 154.541 243.864 155.556 248.487 155.556H248.713C256.944 155.556 256.831 151.609 261.003 151.609C263.483 151.609 264.16 153.075 264.611 154.879L267.542 169.311C268.444 173.258 267.655 174.272 265.287 174.836C259.311 176.076 258.522 163.561 248.713 163.561H248.487C243.864 163.561 241.384 164.463 241.384 169.086V191.749C241.384 195.357 242.962 196.935 250.968 196.935L257.958 196.823C264.836 196.823 267.317 192.087 271.376 183.856C273.293 180.023 274.871 179.121 276.788 179.572Z" fill="black"/>
<path d="M167.034 205.775C151.682 205.775 139 198.378 139 185.414C139 177.187 144.757 171.038 151.182 168.129C147.761 165.968 145.341 162.644 145.341 158.24C145.341 150.594 152.767 145.775 160.693 145.775C166.45 145.775 171.456 147.52 174.627 151.093C176.629 153.337 174.544 156.329 171.623 154.583C169.12 153.088 166.868 152.34 164.281 152.34C159.859 152.34 156.855 154.999 156.855 158.905C156.855 161.647 157.856 163.891 160.36 165.636C164.364 165.137 167.952 165.636 167.952 168.711C167.952 172.367 162.362 172.617 158.023 171.121C155.103 173.863 153.184 177.852 153.184 183.088C153.184 192.395 159.525 199.542 170.288 199.542C179.8 199.542 183.805 194.306 183.805 188.406C183.805 184.002 180.885 181.342 177.38 181.342C173.375 181.342 170.956 184.251 170.956 187.658C170.956 189.32 166.2 188.905 166.2 183.919C166.2 180.096 168.703 177.353 172.958 174.611C176.129 172.534 180.301 170.622 184.556 168.295C190.814 164.805 195.736 161.148 195.736 157.326C195.736 155.414 194.485 154.334 192.315 154.334C191.564 154.334 190.313 154.583 189.562 154.916C186.558 156.079 186.475 153.088 187.81 151.176C189.312 149.182 192.232 147.27 196.904 147.187C201.076 147.104 207 149.514 207 155.83C207 164.888 197.405 170.955 186.141 174.196C190.146 175.608 194.067 179.348 194.067 185.581C194.067 198.545 181.302 205.775 167.034 205.775Z" fill="black"/>
<path d="M88.5463 206.181C67.4617 206.181 51 190.734 51 168.522C51 144.506 69.153 125 93.2819 125C115.945 125 130.715 141.8 130.715 163.674C130.715 187.803 112.901 206.181 88.5463 206.181ZM94.8604 196.146C107.714 196.146 112.675 186.111 112.675 173.258C112.675 154.879 102.979 134.02 87.4188 134.02C75.0161 134.02 69.2658 144.619 69.2658 157.36C69.2658 175.513 78.8497 196.146 94.8604 196.146Z" fill="black"/>
</svg>
